<?xml version="1.0" standalone="no"?>
<!DOCTYPE svg PUBLIC "-//W3C//DTD SVG 20010904//EN"
 "http://www.w3.org/TR/2001/REC-SVG-20010904/DTD/svg10.dtd">
<svg version="1.0" xmlns="http://www.w3.org/2000/svg"
 width="7403.000000pt" height="2411.000000pt" viewBox="0 0 7403.000000 2411.000000"
 preserveAspectRatio="xMidYMid meet">

<g transform="translate(0.000000,2411.000000) scale(0.100000,-0.100000)"
fill="#000000" stroke="none">
<path d="M18786 23711 c-4 -6 -11 -71 -16 -144 -13 -204 -86 -461 -221 -777
-146 -338 -300 -562 -578 -840 -375 -375 -851 -686 -1321 -865 -69 -26 -219
-71 -335 -100 -115 -29 -203 -55 -195 -58 8 -3 96 -25 195 -47 99 -23 216 -53
260 -67 597 -188 1218 -665 1640 -1259 270 -381 526 -962 561 -1272 4 -39 11
-61 18 -59 6 2 52 125 101 273 102 302 156 436 260 639 191 372 406 668 699
960 239 238 489 422 762 562 228 117 415 184 726 259 65 15 116 29 114 31 -1
2 -63 14 -137 28 -239 45 -397 99 -630 216 -457 228 -757 468 -1062 849 -324
405 -601 919 -711 1325 -73 268 -113 374 -130 346z"/>
<path d="M1321 22444 c-5 -38 -13 -109 -16 -159 -17 -274 -203 -5400 -300
-8295 -109 -3245 -228 -6641 -255 -7269 -11 -261 -19 -475 -18 -477 4 -4 2411
14 2976 22 l482 6 0 39 c0 22 31 906 70 1967 38 1060 81 2251 95 2647 51 1462
117 3145 131 3388 8 129 17 133 80 42 155 -225 715 -1335 2830 -5610 565
-1144 1076 -2174 1134 -2290 l105 -210 1351 -3 1351 -2 343 692 c189 381 723
1458 1188 2392 l844 1699 -53 126 c-211 504 -311 714 -464 971 -348 583 -806
1128 -1238 1474 -112 89 -372 276 -385 276 -5 0 -168 -330 -362 -732 -349
-723 -949 -1933 -1031 -2077 -39 -70 -43 -73 -56 -55 -21 28 -1064 2114 -1648
3294 -489 987 -1865 3777 -3327 6745 -385 781 -704 1424 -709 1430 -9 9 -421
15 -2240 30 l-867 7 -11 -68z"/>
<path d="M10520 22303 c0 -47 -55 -377 -76 -453 -88 -327 -301 -720 -559
-1035 -219 -267 -594 -553 -1000 -762 -191 -98 -310 -145 -449 -178 -120 -28
-183 -54 -211 -85 -19 -20 -19 -23 -2 -34 9 -7 54 -16 99 -19 143 -11 313 -69
553 -187 303 -149 504 -290 716 -500 289 -288 527 -620 704 -985 118 -243 164
-382 204 -619 11 -65 22 -120 24 -122 2 -2 20 69 41 159 56 235 123 424 231
642 155 316 360 605 615 868 235 243 505 447 765 579 166 84 270 124 478 183
92 27 166 50 164 51 -1 2 -78 23 -170 48 -212 58 -329 102 -491 183 -442 225
-867 629 -1163 1107 -188 304 -293 551 -413 976 -50 176 -60 207 -60 183z"/>
<path d="M60781 21360 c-336 -19 -594 -63 -911 -154 -976 -281 -1807 -855
-2352 -1628 -391 -553 -618 -1095 -733 -1749 -47 -271 -68 -502 -101 -1156
l-7 -133 -951 -2 -951 -3 -3 -1277 -2 -1278 960 0 960 0 2 -3867 3 -3868 1545
0 1545 0 3 3868 2 3867 1360 0 1360 0 -2 1278 -3 1277 -1392 3 -1393 2 0 33
c0 82 31 664 40 762 99 1025 588 1458 1617 1433 206 -5 251 -16 445 -114 253
-127 307 -178 424 -404 58 -113 93 -169 134 -212 l56 -58 61 0 c136 0 2372
258 2492 287 22 6 23 8 17 68 -20 195 -236 909 -369 1219 -272 633 -893 1219
-1622 1531 -477 204 -886 270 -1725 280 -195 2 -424 0 -509 -5z"/>
<path d="M33920 13710 l0 -7470 1520 0 1520 0 0 1518 c1 1893 14 2615 50 2682
8 15 16 17 38 11 157 -45 429 -315 687 -681 90 -128 571 -853 905 -1362 678
-1035 1052 -1460 1558 -1766 215 -129 614 -307 857 -380 416 -127 945 -199
1522 -209 513 -9 878 34 1334 157 435 118 930 334 1017 445 l20 25 -34 113
c-19 61 -163 556 -321 1100 -176 608 -291 987 -298 987 -7 0 -106 -34 -220
-75 -323 -118 -492 -155 -789 -176 -351 -25 -722 32 -964 146 -301 142 -657
431 -864 700 -25 34 -93 138 -152 233 -460 748 -866 1322 -1111 1568 -38 38
-133 119 -210 178 -77 59 -141 111 -143 115 -1 3 482 524 1075 1156 1926 2056
3108 3325 3417 3668 49 55 76 91 70 97 -30 30 -1005 50 -2506 50 l-1077 0
-683 -732 c-375 -403 -894 -960 -1153 -1238 -1247 -1340 -1965 -2093 -1980
-2078 -28 27 -45 2265 -45 5821 l0 2867 -1520 0 -1520 0 0 -7470z"/>
<path d="M14947 20900 c-3 -8 -10 -78 -17 -155 -24 -295 -80 -556 -192 -894
-255 -776 -555 -1269 -1113 -1827 -440 -440 -909 -782 -1434 -1044 -349 -175
-1065 -418 -1310 -445 -61 -7 -63 -8 -40 -20 23 -13 142 -43 394 -100 580
-132 1299 -489 1815 -901 162 -129 494 -459 644 -639 412 -495 739 -1025 969
-1572 105 -249 158 -426 263 -888 21 -95 29 -115 35 -96 5 12 36 131 70 264
34 133 81 307 105 387 361 1200 1254 2358 2309 2995 459 278 837 418 1422 527
68 13 123 25 123 28 0 3 -100 27 -222 53 -481 103 -822 230 -1198 446 -388
223 -679 449 -1025 795 -362 363 -633 714 -894 1161 -309 528 -487 994 -635
1665 -64 289 -62 280 -69 260z"/>
<path d="M25786 16679 c-1211 -77 -2393 -617 -3265 -1490 -839 -841 -1347
-1868 -1551 -3141 -43 -266 -51 -385 -57 -810 -13 -954 72 -1644 277 -2269
450 -1367 1342 -2303 2580 -2707 331 -108 581 -154 994 -183 227 -16 851 -7
1044 15 460 52 796 153 1217 366 561 283 958 623 1370 1173 48 65 89 116 91
114 4 -4 -26 -618 -56 -1144 -11 -194 -20 -355 -20 -358 0 -3 700 -5 1555 -5
l1555 0 0 5120 0 5120 -1115 0 -1115 0 -5 -22 c-65 -276 -189 -866 -215 -1027
-10 -62 -21 -115 -23 -118 -3 -2 -121 108 -264 245 -274 265 -393 370 -563
494 -292 213 -662 394 -1000 492 -403 116 -941 166 -1434 135z m989 -2704
c515 -83 904 -292 1157 -621 205 -266 384 -666 443 -987 48 -267 48 -728 -1
-1147 -43 -374 -132 -676 -299 -1015 -144 -292 -299 -515 -510 -733 -366 -380
-774 -608 -1229 -688 -156 -27 -373 -37 -544 -25 -405 29 -665 114 -932 306
-284 205 -489 497 -615 879 -109 329 -149 625 -149 1106 0 615 61 999 226
1424 224 575 616 1034 1099 1290 200 106 459 190 664 215 50 6 101 13 115 15
60 11 480 -3 575 -19z"/>
<path d="M49491 16680 c-776 -42 -1495 -229 -2140 -555 -182 -92 -410 -225
-536 -312 -643 -448 -1324 -1243 -1699 -1983 -103 -202 -157 -333 -237 -570
-393 -1174 -418 -2637 -63 -3806 304 -1005 972 -1886 1885 -2487 982 -647
2096 -926 3604 -904 734 11 1310 91 1807 253 558 181 1126 505 1598 910 104
90 492 475 554 551 l26 31 -372 389 c-205 214 -589 615 -852 891 -295 310
-484 501 -492 498 -8 -3 -92 -68 -186 -144 -412 -330 -608 -448 -928 -556
-350 -118 -644 -170 -1030 -183 -555 -17 -1169 96 -1569 290 -113 55 -353 215
-475 318 -55 46 -138 129 -184 184 -176 208 -372 541 -438 740 -18 54 -28 111
-32 177 l-5 98 3249 0 3250 0 22 183 c33 270 45 627 39 1162 -6 584 -31 865
-113 1305 -358 1912 -1494 3103 -3273 3431 -403 74 -994 111 -1410 89z m574
-2240 c531 -50 882 -209 1161 -527 209 -240 317 -482 368 -833 13 -90 46 -431
46 -476 0 -14 -174 -15 -1747 -11 -1696 5 -1939 10 -2055 38 -47 11 -48 12
-48 48 0 138 212 657 355 871 137 204 330 408 505 532 250 178 661 324 1000
356 135 13 288 14 415 2z"/>
<path d="M63270 16538 c0 -2 -11 -545 -25 -1208 -39 -1894 -50 -3200 -36
-4065 17 -1100 32 -1314 122 -1770 266 -1348 945 -2313 1941 -2754 253 -112
445 -168 708 -205 376 -54 483 -61 870 -61 321 1 385 3 530 23 630 86 1163
281 1660 607 246 162 403 290 634 515 248 243 379 400 660 793 98 137 179 247
180 245 4 -5 -42 -718 -59 -898 -41 -457 -124 -892 -232 -1225 -203 -626 -499
-1044 -951 -1345 -313 -209 -751 -367 -1147 -414 -548 -66 -1480 -57 -2005 20
-413 60 -1222 301 -1680 501 -168 73 -416 173 -429 173 -6 0 -15 -19 -21 -42
-7 -24 -99 -358 -205 -743 -339 -1227 -476 -1774 -459 -1827 33 -104 702 -387
1231 -522 1107 -281 2607 -380 3723 -246 281 34 639 101 935 174 1877 465
3188 1581 3773 3212 28 77 80 241 116 364 259 876 284 1184 306 3745 9 1039
41 6462 40 6838 l0 117 -1490 0 -1489 0 -6 -32 c-44 -258 -53 -387 -65 -875
-22 -930 -81 -1677 -195 -2480 -155 -1084 -383 -1915 -695 -2528 -155 -305
-296 -503 -514 -720 -434 -432 -750 -555 -1436 -559 -217 -1 -241 1 -314 22
-98 28 -253 107 -338 171 -85 64 -202 191 -267 287 -149 223 -262 550 -305
884 -51 390 -55 1560 -20 5153 l7 677 -1527 0 c-839 0 -1526 -1 -1526 -2z"/>
<path d="M18960 14699 c-289 -217 -888 -755 -1225 -1101 -641 -657 -1183
-1385 -1633 -2194 -54 -99 -179 -334 -277 -523 l-178 -345 22 -775 c37 -1343
58 -2390 64 -3236 l2 -280 1814 -3 c998 -1 1818 1 1821 5 4 5 1 94 -6 200 -29
454 -39 693 -69 1698 -21 693 -60 2177 -85 3160 -43 1714 -84 2955 -110 3310
-6 72 -10 136 -10 143 0 27 -40 9 -130 -59z"/>
</g>
</svg>
