<svg width="582" height="582" viewBox="0 0 582 582" fill="none" xmlns="http://www.w3.org/2000/svg">
<rect width="582" height="582" rx="150" fill="white"/>
<path d="M87.5 468L100 113H168.5L293 365.5L416.5 113H485L494.5 468H415.5C414.5 395.5 412.757 355.247 411 283L319.5 468H260L169.5 285L163 468H87.5Z" fill="black"/>
<g clip-path="url(#clip0_21_143)">
<mask id="path-3-inside-1_21_143" fill="white">
<path d="M292.786 289.535C324.414 294.251 394.653 271.317 404.951 202.262C399.055 241.797 430.447 309.526 484.742 317.623C430.447 309.526 380.778 364.357 375.157 402.047C380.856 363.83 349.189 297.946 292.786 289.535Z"/>
</mask>
<path d="M306.045 187.512C305.932 188.27 305.834 188.371 305.97 188.041C306.1 187.724 306.298 187.37 306.507 187.081C306.903 186.533 306.734 187.018 305.154 187.972C304.392 188.432 303.47 188.896 302.444 189.305C301.41 189.717 300.502 189.981 299.864 190.127C299.186 190.282 299.197 190.218 300.024 190.166C300.465 190.138 301.274 190.106 302.437 190.145C303.58 190.182 305.306 190.296 307.536 190.628L278.036 388.441C320.599 394.788 369.327 382.87 408.58 359.153C451.811 333.034 493.51 286.398 503.857 217.012L306.045 187.512ZM474.063 416.797C481.361 367.858 465.131 317.696 441.516 280.754C416.683 241.905 372.369 200.297 307.536 190.628L278.036 388.441C276.268 388.177 274.661 387.689 273.344 387.124C272.063 386.575 271.285 386.054 270.98 385.829C270.692 385.617 270.824 385.67 271.262 386.151C271.702 386.634 272.319 387.403 273.004 388.474C273.688 389.545 274.32 390.729 274.847 391.935C275.378 393.149 275.697 394.143 275.863 394.777C275.941 395.078 275.966 395.223 275.962 395.199C275.958 395.177 275.914 394.921 275.875 394.425C275.836 393.934 275.795 393.11 275.825 391.971C275.854 390.838 275.958 389.262 276.251 387.297L474.063 416.797ZM499.492 218.717C433.942 208.941 379.564 237.924 345.871 267.385C313.553 295.645 283.497 338.71 276.251 387.297L474.063 416.797C473.757 418.852 473.38 420.445 473.072 421.552C472.763 422.667 472.483 423.437 472.314 423.867C471.997 424.672 471.932 424.636 472.372 423.915C472.793 423.226 473.481 422.23 474.446 421.085C475.406 419.946 476.46 418.873 477.522 417.944C478.587 417.013 479.471 416.391 480.064 416.027C480.658 415.662 480.752 415.681 480.273 415.859C479.775 416.043 478.581 416.425 476.741 416.649C474.851 416.879 472.533 416.908 469.992 416.529L499.492 218.717ZM499.492 218.717C502.157 219.114 504.483 219.859 506.328 220.684C508.123 221.488 509.227 222.259 509.699 222.624C510.154 222.975 510.084 222.995 509.631 222.473C509.18 221.952 508.51 221.079 507.749 219.826C506.991 218.578 506.273 217.166 505.659 215.687C505.043 214.202 504.638 212.901 504.398 211.929C504.151 210.925 504.173 210.646 504.21 211.175C504.242 211.628 504.358 213.657 503.857 217.012L306.045 187.512C298.816 235.989 314.086 286.231 336.801 323.637C360.241 362.237 403.844 406.664 469.992 416.529L499.492 218.717Z" fill="white" mask="url(#path-3-inside-1_21_143)"/>
</g>
<g clip-path="url(#clip1_21_143)">
<path d="M383.82 284.963C373.627 273.266 362.096 262.026 349.341 251.801C353.084 249.021 356.769 246.133 360.386 243.138C374.708 231.281 388.33 217.435 400.38 201.614C403.775 206.225 407.297 210.726 410.933 215.097C421.34 227.61 433.235 239.711 446.485 250.688C433.382 261.385 421.6 273.156 411.27 285.314C406.601 290.81 402.113 296.518 397.834 302.4C393.384 296.393 388.703 290.566 383.82 284.963Z" stroke="white" stroke-width="100"/>
</g>
<mask id="path-6-inside-2_21_143" fill="white">
<path d="M300 243.863C331.978 243.863 398.5 210 398.5 141C398.5 180.973 439.104 243.33 494 243.33C439.104 243.33 398.5 304.893 398.5 343C398.5 304.36 357.027 243.863 300 243.863Z"/>
</mask>
<path d="M298.5 141C298.5 141.514 298.448 141.447 298.562 140.988C298.672 140.547 298.841 140.129 298.997 139.832C299.276 139.297 299.071 139.953 297.442 141.303C296.663 141.948 295.725 142.608 294.684 143.218C293.635 143.832 292.705 144.264 292.046 144.525C291.346 144.802 291.335 144.737 292.171 144.555C292.619 144.458 293.448 144.297 294.653 144.155C295.838 144.015 297.642 143.863 300 143.863V343.863C343.527 343.863 390.038 324.311 425.042 295.31C463.562 263.395 498.5 211.253 498.5 141H298.5ZM498.5 343C498.5 293.215 474.684 245.926 445.825 213.013C415.462 178.386 365.454 143.863 300 143.863V343.863C298.213 343.863 296.573 343.617 295.224 343.263C293.915 342.919 293.113 342.537 292.827 342.386C292.558 342.244 292.739 342.307 293.283 342.747C293.829 343.189 294.585 343.888 295.446 344.87C296.307 345.852 297.125 346.949 297.836 348.074C298.553 349.208 299.018 350.144 299.273 350.738C299.394 351.019 299.437 351.149 299.425 351.114C299.414 351.081 299.326 350.816 299.209 350.31C299.092 349.808 298.922 348.972 298.778 347.807C298.635 346.648 298.5 345.033 298.5 343H498.5ZM494 143.33C427.612 143.33 378.151 180.133 349.25 214.37C321.512 247.229 298.5 294.181 298.5 343H498.5C498.5 345.03 498.367 346.62 498.232 347.727C498.095 348.841 497.939 349.615 497.841 350.044C497.659 350.843 497.6 350.789 497.931 350C498.247 349.245 498.778 348.159 499.552 346.892C500.322 345.633 501.189 344.433 502.078 343.379C502.97 342.324 503.722 341.606 504.217 341.188C504.713 340.769 504.766 340.804 504.271 341.078C503.758 341.361 502.587 341.935 500.76 342.44C498.883 342.958 496.571 343.33 494 343.33V143.33ZM494 143.33C496.696 143.33 499.129 143.724 501.116 144.281C503.051 144.823 504.302 145.443 504.87 145.762C505.419 146.07 505.394 146.131 504.907 145.711C504.421 145.292 503.66 144.554 502.747 143.45C501.837 142.349 500.935 141.075 500.121 139.711C499.304 138.341 498.714 137.113 498.332 136.174C497.939 135.207 497.909 134.9 498.014 135.374C498.102 135.776 498.5 137.696 498.5 141H298.5C298.5 189.716 320.665 237.08 348.581 270.859C377.379 305.705 427.008 343.33 494 343.33V143.33Z" fill="black" mask="url(#path-6-inside-2_21_143)"/>
<ellipse cx="477.5" cy="144.5" rx="68" ry="77" fill="white"/>
<mask id="path-9-inside-3_21_143" fill="white">
<path d="M244.5 172.09C263.126 172.09 301.621 152.786 301.621 112C301.621 135.351 325.525 171.778 357.5 171.778C325.525 171.778 301.621 207.739 301.621 230C301.621 207.427 277.717 172.09 244.5 172.09Z"/>
</mask>
<path d="M201.621 112C201.621 105.885 203.198 99.0281 206.48 92.6797C209.559 86.7218 213.304 82.778 216.163 80.4044C218.905 78.128 221.699 76.547 224.715 75.3621C226.927 74.493 233.603 72.0897 244.5 72.0897V272.09C280.945 272.09 317.182 256.483 343.928 234.275C374.264 209.086 401.621 167.521 401.621 112H201.621ZM401.621 230C401.621 188.647 382.531 151.768 361.002 126.99C338.012 100.532 298.26 72.0897 244.5 72.0897V272.09C223.957 272.09 212.766 261.316 210.032 258.17C208.248 256.117 206.69 253.732 205.349 250.578C204.241 247.973 201.621 240.975 201.621 230H401.621ZM357.5 71.7784C302.566 71.7784 263.052 102.188 241.267 127.904C220.636 152.259 201.621 188.891 201.621 230H401.621C401.621 241.154 398.949 248.112 398.004 250.353C396.795 253.221 395.434 255.334 393.872 257.178C392.033 259.349 380.458 271.778 357.5 271.778V71.7784ZM357.5 71.7784C381.065 71.7784 392.808 84.7168 394.545 86.811C396.073 88.6543 397.325 90.677 398.409 93.3261C399.279 95.4519 401.621 101.797 401.621 112H201.621C201.621 152.613 219.778 189.379 240.595 214.481C262.277 240.626 301.96 271.778 357.5 271.778V71.7784Z" fill="black" mask="url(#path-9-inside-3_21_143)"/>
<mask id="path-11-inside-4_21_143" fill="white">
<path d="M418.5 147.228C439.434 147.228 482.698 125.471 482.698 79.5C482.698 105.819 509.563 146.877 545.5 146.877C509.563 146.877 482.698 187.409 482.698 212.5C482.698 187.058 455.832 147.228 418.5 147.228Z"/>
</mask>
<path d="M382.698 79.5C382.698 74.7312 383.953 69.0366 386.722 63.6643C389.292 58.678 392.344 55.5191 394.459 53.758C396.455 52.0954 398.442 50.963 400.704 50.0719C402.158 49.4992 408.135 47.2282 418.5 47.2282V247.228C456.184 247.228 494.226 230.943 522.44 207.448C554.255 180.955 582.698 137.499 582.698 79.5H382.698ZM582.698 212.5C582.698 169.803 562.944 131.119 540.176 104.841C515.973 76.9064 474.432 47.2282 418.5 47.2282V247.228C399.901 247.228 390.458 237.465 389.021 235.806C387.878 234.488 386.84 232.936 385.858 230.623C385.109 228.855 382.698 222.709 382.698 212.5H582.698ZM545.5 46.8773C488.469 46.8773 447.205 78.5499 424.229 105.75C402.377 131.62 382.698 170.067 382.698 212.5H582.698C582.698 222.898 580.235 229.006 579.645 230.409C578.793 232.435 577.946 233.707 577.016 234.809C576.457 235.471 566.595 246.877 545.5 246.877V46.8773ZM545.5 46.8773C567.203 46.8773 577.232 58.7818 577.687 59.332C578.583 60.4156 579.322 61.5769 580.049 63.3586C580.563 64.6195 582.698 70.0862 582.698 79.5H382.698C382.698 121.509 401.524 160.139 423.558 186.785C446.43 214.444 487.86 246.877 545.5 246.877V46.8773Z" fill="black" mask="url(#path-11-inside-4_21_143)"/>
<defs>
<clipPath id="clip0_21_143">
<rect width="139" height="220" fill="white" transform="translate(270.5 178)"/>
</clipPath>
<clipPath id="clip1_21_143">
<rect width="317" height="379" fill="white" transform="translate(260.5 59)"/>
</clipPath>
</defs>
</svg>
