<svg width="700" height="700" viewBox="0 0 700 700" fill="none" xmlns="http://www.w3.org/2000/svg">
<rect width="700" height="700" rx="150" fill="white"/>
<path d="M146.5 527L159 172H227.5L352 424.5L475.5 172H544L553.5 527H474.5L470 342L378.5 527H319L228.5 344L222 527H146.5Z" fill="black"/>
<g clip-path="url(#clip0_6_72)">
<path d="M385.908 151.629L385.91 151.638C388.753 165.057 392.362 171.957 395.833 175.99L395.839 175.997L395.845 176.005C399.064 179.755 403.903 183.089 413.477 185.921L413.484 185.923L413.492 185.925C418.593 187.439 423.069 190.561 426.252 194.826C429.435 199.091 431.155 204.27 431.155 209.592C431.155 214.914 429.435 220.093 426.252 224.358C423.069 228.623 418.593 231.745 413.492 233.259L413.482 233.262L413.473 233.265C403.894 236.094 399.066 239.426 395.845 243.18L395.839 243.187L395.833 243.194C392.36 247.23 388.753 254.118 385.91 267.543L385.908 267.554L385.906 267.565C385.799 268.068 385.676 268.565 385.538 269.058C404.956 262.072 415.404 255.46 422.813 246.858L422.817 246.854C431.17 237.165 438.072 222.167 445.07 193.216L445.07 193.215C446.372 187.832 449.446 183.042 453.798 179.617C458.15 176.191 463.528 174.329 469.067 174.329C474.605 174.329 479.983 176.191 484.335 179.617C488.686 183.041 491.759 187.828 493.061 193.209L385.908 151.629ZM385.908 151.629L385.906 151.619C384.726 146.09 381.685 141.134 377.291 137.578C372.896 134.021 367.414 132.081 361.761 132.081C356.108 132.081 350.626 134.021 346.232 137.578C341.837 141.134 338.796 146.09 337.617 151.619L337.615 151.63L337.612 151.642C334.871 164.589 331.475 171.459 327.994 175.62L327.98 175.637L327.965 175.655C324.802 179.459 319.922 182.997 310.049 185.924L310.044 185.925C304.942 187.439 300.466 190.561 297.283 194.826C294.1 199.091 292.381 204.27 292.381 209.592C292.381 214.914 294.1 220.093 297.283 224.358C300.466 228.623 304.942 231.745 310.044 233.259L310.054 233.262C319.617 236.093 324.458 239.428 327.678 243.18L327.684 243.187L327.69 243.194C331.161 247.228 334.769 254.127 337.613 267.546L337.615 267.556L337.617 267.565C338.796 273.094 341.837 278.051 346.232 281.607C350.626 285.163 356.108 287.103 361.761 287.103C362.844 287.103 363.921 287.032 364.985 286.892M385.908 151.629L364.985 286.892M364.985 286.892C364.269 289.226 363.898 291.667 363.898 294.138C363.898 299.302 365.517 304.335 368.527 308.531C371.537 312.726 375.787 315.872 380.679 317.525L380.683 317.527C404.07 325.425 415.827 333.031 423.701 342.507C431.997 352.495 438.372 367.368 445.07 395.048C446.372 400.432 449.446 405.221 453.798 408.647C458.15 412.072 463.528 413.934 469.067 413.934C474.605 413.934 479.983 412.072 484.335 408.647C488.687 405.221 491.761 400.432 493.063 395.049C500.058 366.121 506.973 351.114 515.32 341.418C523.324 332.125 534.876 325.155 557.452 317.526L557.454 317.525C562.346 315.872 566.596 312.726 569.606 308.531C572.616 304.335 574.235 299.302 574.235 294.138C574.235 288.975 572.616 283.941 569.606 279.746C566.596 275.55 562.346 272.404 557.454 270.751L557.45 270.749C534.006 262.832 522.289 255.263 514.438 245.802L514.43 245.793C506.154 235.837 499.79 220.987 493.063 193.215L364.985 286.892Z" fill="black" stroke="white" stroke-width="30"/>
</g>
<defs>
<clipPath id="clip0_6_72">
<rect width="310" height="310" fill="white" transform="translate(278.3 118)"/>
</clipPath>
</defs>
</svg>
