<svg width="700" height="700" viewBox="0 0 700 700" fill="none" xmlns="http://www.w3.org/2000/svg">
<rect width="700" height="700" rx="150" fill="black"/>
<path d="M139 527L151.5 172H220L344.5 424.5L468 172H536.5L546 527H467L462.5 342L371 527H311.5L221 344L214.5 527H139Z" fill="white"/>
<mask id="path-3-inside-1_6_37" fill="white">
<path d="M347.769 300.536C379.6 303.608 448.556 277.065 455.263 207.569C451.423 247.357 486.282 313.368 540.923 318.642C486.282 313.368 439.52 370.699 435.859 408.63C439.571 370.168 404.533 306.014 347.769 300.536Z"/>
</mask>
<path d="M355.726 197.963C355.652 198.726 355.56 198.832 355.678 198.496C355.792 198.172 355.971 197.808 356.165 197.509C356.532 196.942 356.388 197.434 354.86 198.469C354.123 198.968 353.225 199.479 352.222 199.94C351.211 200.405 350.318 200.716 349.688 200.895C349.02 201.085 349.027 201.02 349.85 200.926C350.29 200.875 351.096 200.801 352.259 200.779C353.402 200.758 355.132 200.782 357.376 200.998L338.163 400.073C380.998 404.207 429.043 389.78 467.015 364.062C508.834 335.738 548.062 287.005 554.801 217.176L355.726 197.963ZM535.396 418.236C540.15 368.985 521.343 319.731 495.845 284.061C469.033 246.552 422.622 207.295 357.376 200.998L338.163 400.073C336.384 399.902 334.754 399.497 333.409 399.001C332.101 398.519 331.298 398.039 330.982 397.831C330.683 397.634 330.817 397.68 331.28 398.137C331.745 398.597 332.401 399.333 333.14 400.367C333.879 401.401 334.571 402.551 335.16 403.728C335.753 404.913 336.123 405.889 336.322 406.514C336.416 406.81 336.447 406.953 336.442 406.929C336.437 406.908 336.38 406.654 336.315 406.161C336.251 405.673 336.167 404.853 336.138 403.714C336.109 402.581 336.13 401.001 336.321 399.023L535.396 418.236ZM550.53 219.104C484.561 212.738 431.757 244.498 399.636 275.666C368.826 305.562 341.04 350.126 336.321 399.023L535.396 418.236C535.197 420.304 534.903 421.915 534.653 423.036C534.402 424.165 534.162 424.949 534.015 425.387C533.741 426.207 533.674 426.175 534.077 425.432C534.461 424.722 535.096 423.692 536.001 422.498C536.901 421.311 537.898 420.185 538.91 419.202C539.925 418.217 540.776 417.551 541.35 417.156C541.924 416.761 542.019 416.775 541.55 416.977C541.062 417.188 539.889 417.631 538.063 417.95C536.187 418.277 533.874 418.426 531.317 418.179L550.53 219.104ZM550.53 219.104C553.212 219.363 555.573 219.987 557.458 220.715C559.293 221.425 560.435 222.138 560.925 222.478C561.398 222.805 561.328 222.828 560.849 222.33C560.372 221.834 559.657 220.996 558.833 219.785C558.011 218.577 557.221 217.205 556.532 215.76C555.839 214.308 555.367 213.03 555.077 212.071C554.779 211.082 554.786 210.803 554.851 211.328C554.906 211.779 555.127 213.799 554.801 217.176L355.726 197.963C351.017 246.75 368.87 296.133 393.492 332.312C418.901 369.646 464.746 411.754 531.317 418.179L550.53 219.104Z" fill="black" mask="url(#path-3-inside-1_6_37)"/>
<path d="M451.32 304.963C441.127 293.266 429.596 282.026 416.841 271.801C420.584 269.021 424.269 266.133 427.886 263.138C442.208 251.281 455.83 237.435 467.88 221.614C471.275 226.225 474.797 230.726 478.433 235.097C488.84 247.61 500.735 259.711 513.985 270.688C500.882 281.385 489.1 293.156 478.77 305.314C474.101 310.81 469.613 316.518 465.334 322.4C460.884 316.393 456.203 310.566 451.32 304.963Z" stroke="black" stroke-width="100"/>
<mask id="path-6-inside-2_6_37" fill="white">
<path d="M366.5 270.863C398.478 270.863 464.566 237.819 464.566 168C464.566 207.973 505.604 270.33 560.5 270.33C505.604 270.33 464.566 331.887 464.566 369.995C464.566 331.354 423.527 270.863 366.5 270.863Z"/>
</mask>
<path d="M364.566 168C364.566 168.767 364.484 168.881 364.569 168.535C364.651 168.202 364.795 167.822 364.959 167.505C365.27 166.906 365.174 167.409 363.753 168.587C363.067 169.154 362.223 169.749 361.269 170.304C360.306 170.865 359.448 171.259 358.838 171.498C358.191 171.752 358.192 171.686 359.002 171.513C359.435 171.421 360.23 171.27 361.386 171.136C362.521 171.005 364.245 170.863 366.5 170.863V370.863C409.534 370.863 455.971 351.887 491.297 322.64C530.202 290.43 564.566 238.153 564.566 168H364.566ZM564.566 369.995C564.566 320.514 541.114 273.295 512.308 240.24C482.016 205.479 432.05 170.863 366.5 170.863V370.863C364.713 370.863 363.052 370.617 361.665 370.252C360.317 369.898 359.471 369.497 359.137 369.32C358.821 369.153 358.958 369.186 359.463 369.597C359.97 370.009 360.693 370.679 361.528 371.637C362.363 372.595 363.163 373.674 363.862 374.789C364.566 375.912 365.028 376.847 365.286 377.45C365.408 377.736 365.453 377.876 365.446 377.852C365.439 377.832 365.358 377.585 365.246 377.1C365.135 376.62 364.973 375.812 364.834 374.681C364.696 373.556 364.566 371.981 364.566 369.995H564.566ZM560.5 170.33C494.225 170.33 444.716 207.016 415.738 241.125C387.942 273.843 364.566 320.87 364.566 369.995H564.566C564.566 372.072 564.428 373.703 564.287 374.844C564.146 375.991 563.982 376.795 563.878 377.245C563.684 378.088 563.615 378.062 563.944 377.284C564.258 376.54 564.791 375.454 565.578 374.179C566.359 372.911 567.243 371.694 568.157 370.619C569.072 369.541 569.855 368.795 570.388 368.348C570.921 367.899 571.017 367.904 570.57 368.15C570.104 368.407 568.98 368.96 567.193 369.453C565.357 369.959 563.069 370.33 560.5 370.33V170.33ZM560.5 170.33C563.194 170.33 565.605 170.723 567.551 171.268C569.445 171.798 570.651 172.398 571.171 172.689C571.673 172.969 571.606 172.999 571.082 172.549C570.559 172.101 569.767 171.336 568.83 170.21C567.896 169.086 566.978 167.796 566.153 166.424C565.324 165.046 564.731 163.819 564.351 162.892C563.959 161.936 563.939 161.658 564.054 162.175C564.153 162.618 564.566 164.607 564.566 168H364.566C364.566 217.013 387.08 264.453 415.064 298.1C443.942 332.82 493.62 370.33 560.5 370.33V170.33Z" fill="white" mask="url(#path-6-inside-2_6_37)"/>
<mask id="path-8-inside-3_6_37" fill="white">
<path d="M362.667 205.628C373.216 205.628 395.018 194.504 395.018 171C395.018 184.456 408.557 205.449 426.667 205.449C408.557 205.449 395.018 226.172 395.018 239C395.018 225.992 381.48 205.628 362.667 205.628Z"/>
</mask>
<path d="M295.018 171C295.018 148.31 306.664 130.539 318.262 120.74C323.565 116.26 329.232 112.994 335.053 110.667C340.046 108.671 349.474 105.628 362.667 105.628V305.628C395.592 305.628 425.852 291.666 447.335 273.516C472.472 252.279 495.018 217.194 495.018 171H295.018ZM495.018 239C495.018 202.979 478.977 172.443 461.942 152.495C443.599 131.017 409.918 105.628 362.667 105.628V305.628C334.229 305.628 316.723 290.421 309.854 282.377C305.96 277.818 302.778 272.683 300.35 266.876C298.144 261.6 295.018 252.074 295.018 239H495.018ZM426.667 105.449C377.955 105.449 344.388 132.786 327.2 153.43C310.991 172.899 295.018 203.15 295.018 239H495.018C495.018 252.219 491.842 261.697 489.803 266.619C487.512 272.149 484.54 277.028 480.903 281.397C475.012 288.473 457.269 305.449 426.667 305.449V105.449ZM426.667 105.449C457.886 105.449 475.787 123.002 481.566 130.092C485.167 134.51 488.03 139.362 490.197 144.753C492.161 149.637 495.018 158.605 495.018 171H295.018C295.018 206.137 310.159 236.355 326.537 256.449C343.612 277.399 377.338 305.449 426.667 305.449V105.449Z" fill="white" mask="url(#path-8-inside-3_6_37)"/>
<ellipse cx="523.667" cy="197.5" rx="42" ry="37.5" fill="black"/>
<mask id="path-11-inside-4_6_37" fill="white">
<path d="M490.667 196.878C503.029 196.878 528.579 184.067 528.579 157C528.579 172.496 544.444 196.671 565.667 196.671C544.444 196.671 528.579 220.536 528.579 235.309C528.579 220.329 512.713 196.878 490.667 196.878Z"/>
</mask>
<path d="M428.579 157C428.579 135.401 439.929 118.827 450.381 110.15C455.133 106.205 460.133 103.385 465.242 101.377C469.548 99.6858 478.206 96.8776 490.667 96.8776V296.878C523.976 296.878 555.409 282.897 578.136 264.028C604.454 242.179 628.579 205.666 628.579 157H428.579ZM628.579 235.309C628.579 197.748 611.496 165.737 593.371 144.881C573.785 122.344 538.837 96.8776 490.667 96.8776V296.878C464.543 296.878 448.551 283.137 442.41 276.07C438.922 272.057 436.01 267.474 433.739 262.138C431.702 257.35 428.579 248.184 428.579 235.309H628.579ZM565.667 96.671C516.115 96.671 481.299 124.051 462.866 145.808C445.587 166.203 428.579 197.94 428.579 235.309H628.579C628.579 248.337 625.403 257.456 623.536 261.885C621.405 266.941 618.702 271.268 615.463 275.092C610.268 281.223 593.996 296.671 565.667 296.671V96.671ZM565.667 96.671C594.603 96.671 611.043 112.667 616.135 118.807C619.341 122.673 621.935 126.964 623.942 131.867C625.734 136.246 628.579 144.832 628.579 157H428.579C428.579 193.689 444.73 225.43 462.193 246.486C480.524 268.587 515.508 296.671 565.667 296.671V96.671Z" fill="white" mask="url(#path-11-inside-4_6_37)"/>
</svg>
