<?xml version="1.0" standalone="no"?>
<!DOCTYPE svg PUBLIC "-//W3C//DTD SVG 20010904//EN"
 "http://www.w3.org/TR/2001/REC-SVG-20010904/DTD/svg10.dtd">
<svg version="1.0" xmlns="http://www.w3.org/2000/svg"
 width="1326.000000pt" height="1227.000000pt" viewBox="0 0 1326.000000 1227.000000"
 preserveAspectRatio="xMidYMid meet">

<g transform="translate(0.000000,1227.000000) scale(0.100000,-0.100000)"
fill="#000000" stroke="none">
<path d="M6385 11389 c-81 -20 -161 -90 -194 -169 -6 -14 -26 -91 -46 -171
-96 -399 -233 -678 -430 -874 -150 -150 -339 -259 -610 -351 -129 -44 -144
-52 -191 -99 -59 -58 -84 -120 -84 -205 0 -68 13 -110 52 -167 39 -58 86 -88
197 -124 281 -91 459 -190 616 -340 216 -208 345 -465 455 -911 43 -173 60
-209 122 -262 51 -44 115 -66 193 -66 103 0 204 63 253 156 6 11 25 79 42 150
123 521 305 841 590 1043 104 74 305 170 463 222 124 41 135 47 187 99 84 83
108 176 75 287 -20 66 -64 126 -118 157 -24 14 -91 41 -149 61 -283 93 -464
200 -627 370 -185 193 -312 458 -412 859 -39 162 -65 220 -116 268 -62 59
-181 89 -268 67z"/>
<path d="M370 10586 c0 -35 -83 -2427 -185 -5316 -102 -2889 -185 -5256 -185
-5261 0 -5 461 -9 1135 -9 l1135 0 0 65 c0 85 189 5408 193 5411 1 1 612
-1230 1356 -2737 l1355 -2739 894 2 895 3 858 1736 859 1736 -50 96 c-63 119
-88 190 -140 398 -84 336 -177 627 -268 842 -134 315 -283 510 -510 665 -113
77 -281 167 -292 156 -4 -5 -287 -580 -628 -1277 -341 -698 -622 -1271 -624
-1273 -3 -2 -844 1698 -1870 3779 l-1865 3782 -1031 3 -1032 2 0 -64z"/>
<path d="M10593 10598 c60 -72 98 -130 141 -216 57 -114 72 -157 132 -390 112
-435 207 -717 319 -947 132 -271 261 -423 485 -570 96 -63 305 -173 314 -165
2 3 -9 482 -25 1065 -15 583 -29 1108 -29 1168 l0 107 -691 0 -691 0 45 -52z"/>
<path d="M9594 10119 c-49 -14 -126 -70 -156 -114 -20 -29 -42 -94 -77 -230
-130 -503 -234 -806 -380 -1110 -328 -679 -748 -1020 -1666 -1351 -200 -73
-241 -95 -285 -156 -66 -90 -75 -202 -25 -305 39 -78 89 -115 213 -159 224
-78 444 -169 627 -259 820 -404 1174 -922 1505 -2198 66 -252 85 -292 165
-345 113 -75 254 -64 359 28 53 47 68 82 120 285 363 1401 757 1927 1749 2339
84 35 217 86 297 114 185 66 223 86 270 140 52 59 74 126 68 211 -6 75 -23
114 -75 172 -46 50 -62 59 -242 124 -238 85 -395 152 -581 246 -697 350 -1042
788 -1334 1688 -51 157 -144 491 -176 631 -44 190 -207 298 -376 249z"/>
<path d="M11905 5632 c-257 -126 -450 -277 -566 -442 -180 -256 -320 -617
-484 -1250 -64 -247 -122 -382 -224 -517 -197 -262 -525 -453 -778 -453 l-83
0 0 -67 c0 -46 67 -2815 70 -2900 0 -2 533 -3 1185 -3 987 0 1185 2 1185 13 0
8 -34 1271 -75 2808 -41 1537 -75 2813 -75 2837 0 23 -3 42 -8 42 -4 0 -70
-31 -147 -68z"/>
</g>
</svg>
