<?xml version="1.0" standalone="no"?>
<!DOCTYPE svg PUBLIC "-//W3C//DTD SVG 20010904//EN"
 "http://www.w3.org/TR/2001/REC-SVG-20010904/DTD/svg10.dtd">
<svg version="1.0" xmlns="http://www.w3.org/2000/svg"
 width="6512.000000pt" height="2212.000000pt" viewBox="0 0 6512.000000 2212.000000"
 preserveAspectRatio="xMidYMid meet">

<g transform="translate(0.000000,2212.000000) scale(0.100000,-0.100000)"
fill="#000000" stroke="none">
<path d="M15880 19308 c-1 -209 -87 -576 -196 -837 -275 -656 -866 -1216
-1588 -1506 -217 -87 -505 -162 -635 -166 l-36 -1 40 -8 c22 -4 85 -13 140
-20 307 -36 666 -177 970 -381 629 -421 1131 -1154 1275 -1860 11 -54 23 -132
27 -174 3 -41 7 -74 8 -73 2 2 10 55 19 118 37 254 117 503 251 775 173 355
383 643 666 920 229 223 402 348 664 481 241 121 507 201 734 220 l86 8 -115
13 c-318 36 -653 163 -944 357 -161 108 -253 183 -410 336 -277 270 -507 591
-677 945 -126 263 -222 565 -250 787 -15 114 -28 145 -29 66z"/>
<path d="M43910 19214 c-403 -45 -668 -129 -920 -292 -337 -217 -615 -602
-725 -1004 -45 -167 -57 -255 -62 -463 -6 -226 7 -349 57 -543 98 -375 367
-764 690 -995 117 -83 320 -185 460 -231 486 -161 1113 -137 1572 60 387 166
739 528 915 944 189 445 186 996 -9 1445 -76 176 -209 372 -361 532 -277 291
-614 461 -1047 528 -99 16 -487 29 -570 19z"/>
<path d="M52810 19194 c-25 -2 -106 -8 -180 -14 -794 -64 -1546 -316 -2193
-737 -718 -466 -1300 -1201 -1608 -2031 -104 -279 -199 -678 -238 -1002 -32
-257 -41 -422 -41 -737 l0 -293 -940 0 -940 0 0 -1270 0 -1270 940 0 940 0 0
-3820 0 -3820 1530 0 1530 0 0 3820 0 3820 1350 0 1350 0 0 1270 0 1270 -1371
0 -1371 0 5 438 c4 447 9 509 52 707 138 624 584 1020 1224 1085 579 58 1036
-141 1226 -534 43 -89 85 -219 85 -263 0 -12 4 -24 8 -27 8 -5 2611 310 2618
316 1 2 -8 68 -21 147 -172 1011 -568 1742 -1207 2227 -513 389 -1140 620
-1903 699 -140 15 -735 28 -845 19z"/>
<path d="M31230 11600 l0 -7400 1530 0 1530 0 0 2110 0 2111 58 -37 c283 -179
540 -460 859 -939 56 -82 293 -451 528 -820 500 -785 547 -856 681 -1036 783
-1050 1660 -1496 3106 -1580 262 -15 772 -7 958 15 422 50 847 158 1200 305
137 57 452 212 487 239 l22 17 -323 1105 c-178 608 -326 1115 -330 1128 l-7
22 -62 -34 c-137 -76 -375 -165 -551 -206 -311 -72 -671 -77 -984 -15 -497
101 -916 384 -1224 830 -31 44 -236 364 -458 710 -221 347 -441 682 -488 745
-148 197 -364 399 -569 535 -40 26 -73 52 -73 57 0 7 4366 4684 4529 4851 l65
67 -1821 0 -1822 0 -1891 -2030 -1890 -2030 0 4340 0 4340 -1530 0 -1530 0 0
-7400z"/>
<path d="M576 18028 c-5 -102 -496 -14019 -496 -14059 0 -5 655 -9 1509 -9
l1509 0 6 133 c4 72 63 1716 132 3651 68 1936 125 3521 127 3522 1 1 815
-1641 1808 -3649 l1806 -3652 1193 0 1193 0 1028 2080 1029 2079 -21 66 c-37
111 -144 379 -207 516 -329 717 -836 1349 -1426 1778 -161 118 -205 143 -217
125 -5 -8 -286 -582 -626 -1276 -340 -695 -620 -1263 -623 -1263 -3 0 -1124
2269 -2491 5043 l-2486 5042 -1370 3 -1371 2 -6 -132z"/>
<path d="M8641 18063 c0 -29 -8 -105 -16 -170 -69 -519 -292 -971 -665 -1343
-367 -366 -884 -647 -1335 -725 -55 -9 -118 -21 -140 -25 l-40 -8 45 -1 c75
-2 237 -29 354 -60 369 -96 707 -300 1021 -615 83 -83 187 -199 232 -257 287
-370 488 -822 536 -1201 l12 -100 12 99 c39 328 217 759 451 1093 140 200 350
429 527 575 324 267 722 444 1058 472 42 3 75 8 73 10 -2 3 -40 9 -83 14 -710
88 -1382 624 -1778 1418 -130 260 -216 527 -248 771 -12 84 -15 95 -16 53z"/>
<path d="M13071 17804 c0 -11 3 -14 6 -6 3 7 2 16 -1 19 -3 4 -6 -2 -5 -13z"/>
<path d="M12517 16820 c-3 -36 -11 -119 -18 -185 -61 -664 -310 -1323 -711
-1882 -678 -943 -1871 -1675 -2958 -1812 l-135 -17 115 -7 c586 -36 1229 -273
1771 -653 395 -277 767 -641 1072 -1048 371 -496 641 -1049 775 -1582 41 -162
82 -400 82 -473 0 -74 17 -43 24 43 18 246 115 622 243 946 58 147 211 463
293 605 364 633 840 1167 1385 1555 314 224 696 411 1050 515 202 60 503 113
658 116 47 1 30 5 -73 15 -915 93 -1751 571 -2455 1404 -621 735 -1043 1683
-1108 2490 -2 25 -5 16 -10 -30z"/>
<path d="M23275 14534 c-22 -2 -103 -8 -180 -14 -1016 -79 -2003 -484 -2820
-1161 -144 -119 -523 -502 -646 -654 -769 -944 -1181 -2037 -1269 -3363 -13
-198 -13 -757 0 -954 73 -1081 370 -2010 873 -2730 144 -206 247 -329 437
-519 235 -235 414 -379 688 -552 131 -83 418 -228 567 -286 548 -215 1146
-313 1815 -298 987 23 1772 305 2432 875 212 183 455 459 625 709 75 111 78
114 81 82 1 -19 -18 -342 -43 -718 -25 -376 -45 -699 -45 -718 l0 -33 1540 0
1540 0 0 5070 0 5070 -1102 0 -1103 0 -129 -609 -129 -610 -60 87 c-250 367
-597 671 -1042 911 -403 217 -785 337 -1265 396 -118 15 -668 28 -765 19z
m945 -2679 c431 -66 747 -227 1033 -525 401 -418 585 -1036 547 -1836 -39
-802 -263 -1433 -691 -1945 -100 -120 -289 -309 -394 -394 -401 -325 -876
-495 -1386 -495 -702 0 -1247 327 -1548 929 -145 288 -229 623 -262 1035 -15
195 -6 684 16 866 64 526 198 939 429 1328 178 298 436 570 701 737 287 181
586 276 1000 319 87 9 454 -4 555 -19z"/>
<path d="M42600 9290 l0 -5090 1530 0 1530 0 0 5090 0 5090 -1530 0 -1530 0 0
-5090z"/>
<path d="M55030 13963 c-1 -230 -9 -1498 -19 -2818 -9 -1320 -14 -2498 -10
-2619 49 -1402 430 -2498 1114 -3205 501 -517 1132 -806 1960 -897 202 -22
587 -29 790 -15 996 70 1795 424 2526 1119 282 268 606 677 810 1022 26 43 45
68 47 58 3 -18 -63 -940 -79 -1093 -71 -691 -252 -1291 -515 -1711 -448 -715
-1139 -1049 -2309 -1115 -325 -19 -807 -3 -1175 37 -676 74 -1508 313 -2205
635 -93 43 -171 75 -172 71 -16 -46 -713 -2576 -713 -2585 0 -32 399 -247 625
-336 463 -183 1073 -319 1875 -420 677 -86 1163 -108 1725 -81 1795 88 3161
601 4215 1585 598 559 1032 1293 1290 2185 183 633 275 1280 300 2096 6 185
10 2040 10 4412 l0 4092 -1483 0 -1484 0 -6 -357 c-20 -1056 -93 -2117 -203
-2933 -171 -1281 -480 -2290 -890 -2905 -98 -148 -165 -230 -287 -354 -338
-344 -720 -536 -1156 -580 -342 -35 -648 19 -885 158 -91 53 -224 174 -296
270 -120 158 -251 480 -305 746 -46 229 -57 353 -62 700 -4 270 20 4378 30
5063 l3 192 -1533 0 -1533 0 0 -417z"/>
<path d="M16004 11337 c-328 -245 -569 -453 -878 -757 -782 -770 -1389 -1613
-1878 -2607 l-129 -262 15 -573 c21 -783 34 -1342 46 -1998 5 -305 12 -696 16
-867 l6 -313 1579 0 c1257 0 1579 3 1579 13 0 78 -201 7471 -203 7473 -1 2
-70 -47 -153 -109z"/>
</g>
</svg>
