<?xml version="1.0" standalone="no"?>
<!DOCTYPE svg PUBLIC "-//W3C//DTD SVG 20010904//EN"
 "http://www.w3.org/TR/2001/REC-SVG-20010904/DTD/svg10.dtd">
<svg version="1.0" xmlns="http://www.w3.org/2000/svg"
 width="1968.000000pt" height="1552.000000pt" viewBox="0 0 1968.000000 1552.000000"
 preserveAspectRatio="xMidYMid meet">

<g transform="translate(0.000000,1552.000000) scale(0.100000,-0.100000)"
fill="#000000" stroke="none">
<path d="M17160 15362 c0 -158 -54 -441 -125 -657 -125 -382 -330 -710 -635
-1016 -225 -227 -426 -379 -695 -528 -296 -163 -692 -297 -938 -318 -37 -3
-66 -7 -64 -9 2 -2 48 -8 103 -14 260 -28 503 -99 750 -220 630 -309 1171
-911 1448 -1613 83 -211 154 -497 157 -635 l1 -47 8 40 c4 22 13 77 19 122 32
226 118 487 246 748 173 355 383 643 666 920 229 223 402 348 664 481 240 121
459 188 715 218 63 8 98 14 76 15 -66 2 -247 31 -348 57 -411 103 -804 344
-1155 708 -460 475 -794 1127 -868 1693 -8 58 -16 108 -19 111 -3 3 -6 -22 -6
-56z"/>
<path d="M1856 14068 c-5 -102 -496 -14019 -496 -14059 0 -5 655 -9 1509 -9
l1509 0 6 133 c4 72 63 1716 132 3651 68 1936 125 3521 127 3522 1 1 815
-1641 1808 -3649 l1806 -3652 1193 0 1193 0 1028 2080 1029 2079 -26 81 c-43
132 -150 396 -219 540 -356 751 -881 1382 -1497 1802 l-121 83 -126 -258 c-70
-141 -352 -717 -626 -1279 -275 -563 -502 -1023 -505 -1023 -3 0 -1124 2269
-2491 5043 l-2486 5042 -1370 3 -1371 2 -6 -132z"/>
<path d="M9921 14103 c-3 -161 -52 -416 -117 -613 -193 -583 -649 -1091 -1259
-1400 -218 -110 -440 -189 -635 -224 -47 -8 -107 -19 -135 -24 l-50 -10 45 -1
c75 -2 238 -29 354 -60 369 -96 707 -300 1021 -615 83 -83 187 -199 232 -257
289 -373 491 -829 536 -1207 l12 -105 13 108 c34 284 162 629 348 936 209 347
512 670 824 880 260 175 603 304 863 326 42 3 75 8 73 10 -2 3 -40 9 -83 14
-344 43 -685 192 -998 437 -121 95 -384 367 -485 504 -294 393 -488 840 -543
1248 -12 84 -15 95 -16 53z"/>
<path d="M14351 13844 c0 -11 3 -14 6 -6 3 7 2 16 -1 19 -3 4 -6 -2 -5 -13z"/>
<path d="M13798 12890 c-4 -25 -12 -110 -18 -190 -42 -541 -227 -1120 -508
-1590 -191 -321 -371 -551 -656 -836 -385 -384 -750 -645 -1241 -888 -479
-237 -870 -360 -1310 -409 l-110 -13 121 -7 c975 -59 1952 -603 2704 -1507
515 -619 891 -1409 990 -2080 11 -74 20 -156 20 -182 0 -27 5 -48 10 -48 6 0
10 21 10 48 0 82 38 312 79 478 278 1120 1100 2243 2076 2835 148 90 442 233
593 289 287 107 656 186 894 191 53 2 53 2 -17 10 -38 4 -115 13 -170 19 -378
42 -814 189 -1180 399 -339 195 -614 410 -920 722 -185 189 -284 304 -435 504
-503 669 -859 1524 -918 2205 -7 84 -9 90 -14 50z"/>
<path d="M17260 7359 c-809 -607 -1521 -1369 -2111 -2259 -239 -360 -418 -673
-621 -1086 l-129 -262 15 -573 c21 -784 34 -1342 46 -1999 5 -305 12 -696 16
-867 l6 -313 1579 0 c1257 0 1579 3 1579 13 0 81 -201 7471 -203 7473 -2 2
-81 -55 -177 -127z"/>
</g>
</svg>
